<svg xmlns="http://www.w3.org/2000/svg" width="279.896" height="168.082" viewBox="0 0 279.896 168.082">
  <g id="Group_2108" data-name="Group 2108" transform="translate(-48 -289)">
    <g id="Group_2107" data-name="Group 2107">
      <g id="Group_12" data-name="Group 12" transform="translate(0 98.485)">
        <path id="Path_1423" data-name="Path 1423" d="M113.56,331.1a7.429,7.429,0,1,1,2.175,5.324A7.24,7.24,0,0,1,113.56,331.1Z" transform="translate(-60 20)" fill="#fff"/>
        <path id="Path_1424" data-name="Path 1424" d="M187.825,178.015A7.427,7.427,0,1,1,190,183.34,7.24,7.24,0,0,1,187.825,178.015Z" transform="translate(-59 20)" fill="#fff"/>
        <g id="Group_13" data-name="Group 13">
          <g id="Group_11" data-name="Group 11" transform="translate(-60.251 20)">
            <g id="Group_10" data-name="Group 10">
              <path id="Path_1419" data-name="Path 1419" d="M175.3,293.06v11.25h-7.65a11.035,11.035,0,0,1-4.35-.826,18.181,18.181,0,0,1-3.525-1.949,15.108,15.108,0,0,1-2.625-2.326,10.441,10.441,0,0,1-1.5-2.1q-.9.9-2.475,2.326a18.9,18.9,0,0,1-4.05,2.7,32.539,32.539,0,0,1-5.85,2.25,27.925,27.925,0,0,1-7.725.974,38.9,38.9,0,0,1-9.45-1.2,21.03,21.03,0,0,1-8.775-4.65,25.13,25.13,0,0,1-6.525-9.676q-2.552-6.222-2.55-16.274a42.145,42.145,0,0,1,1.5-11.476,24.384,24.384,0,0,1,4.875-9.3,22.853,22.853,0,0,1,8.7-6.225,33.763,33.763,0,0,1,13.125-2.25,84.941,84.941,0,0,1,10.2.6q4.95.6,9.15,1.35t8.1,1.8v39.149a5.194,5.194,0,0,0,1.875,4.426,7.094,7.094,0,0,0,4.425,1.425Zm-23.1-36.6a42.91,42.91,0,0,0-7.875-1.35q-3.977-.3-6.525-.3a30.8,30.8,0,0,0-6.975.75,12.431,12.431,0,0,0-5.625,2.924,14.443,14.443,0,0,0-3.75,5.85,28.108,28.108,0,0,0-1.35,9.525q0,10.951,4.35,15.75t12.3,4.8a23.749,23.749,0,0,0,7.05-.9,20.951,20.951,0,0,0,4.875-2.176,16.82,16.82,0,0,0,3.525-2.924ZM124,224.66a7.429,7.429,0,1,1,2.175,5.324A7.242,7.242,0,0,1,124,224.66Zm19.2,0a7.429,7.429,0,1,1,2.175,5.324A7.242,7.242,0,0,1,143.2,224.66Z" fill="#fff"/>
              <path id="Path_1420" data-name="Path 1420" d="M190.9,177.16a3.422,3.422,0,0,1,2.7-1.2h7.95v112.3a11.861,11.861,0,0,0,3.45,2.324,29,29,0,0,0,5.025,1.726,29.777,29.777,0,0,0,7.275.75h2.85v11.25H217.3a30.2,30.2,0,0,1-9.3-1.8,19.426,19.426,0,0,1-8.85-5.85,15.315,15.315,0,0,1-6.15,5.324,23.406,23.406,0,0,1-11.1,2.326H170.5V293.06h7.95q6.3,0,8.85-3a11.864,11.864,0,0,0,2.55-7.951V180.16A4.387,4.387,0,0,1,190.9,177.16Z" fill="#fff"/>
              <path id="Path_1421" data-name="Path 1421" d="M224.047,250.16a4.363,4.363,0,0,1,4.2-4.2H235.9v8.4l53.1-8.4a22.19,22.19,0,0,1,6.45.375,25.842,25.842,0,0,1,6.6,2.25,28.106,28.106,0,0,1,5.625,3.676,20.712,20.712,0,0,1,4.349,5.25,30.783,30.783,0,0,1,3.076,7.425,37.17,37.17,0,0,1,1.2,9.975,50.108,50.108,0,0,1-1.2,11.025,24.7,24.7,0,0,1-4.2,9.375,21.692,21.692,0,0,1-8.025,6.524A28.622,28.622,0,0,1,290.2,304.31h-76.05V293.06h9.9Zm63.9,42.9a22.517,22.517,0,0,0,4.875-.675,16.189,16.189,0,0,0,5.625-2.551,15.972,15.972,0,0,0,4.651-5.25,17.43,17.43,0,0,0,1.95-8.774,22.668,22.668,0,0,0-1.875-10.05,16.43,16.43,0,0,0-4.5-5.776,14.385,14.385,0,0,0-5.476-2.7,21.436,21.436,0,0,0-4.8-.676l-52.5,9V293.06Z" fill="#fff"/>
              <path id="Path_1422" data-name="Path 1422" d="M364.3,245.959a58.2,58.2,0,0,1,9.075.676q4.275.674,7.875,1.5t6.9,1.875v54.9a66.735,66.735,0,0,1-1.65,16.2,24.453,24.453,0,0,1-5.025,10.276,18.24,18.24,0,0,1-8.475,5.4,40.287,40.287,0,0,1-11.85,1.574q-1.35,0-3.45-.15c-1.4-.1-227.85-.225-229.35-.375a39.482,39.482,0,0,1-4.35-.674,33.441,33.441,0,0,1-3.45-.9,5.124,5.124,0,0,1-2.475-1.725,3.922,3.922,0,0,1-.225-3.375l1.5-6.3q2.7.6,5.325,1.125t5.55.9c1.95.248,228.875.375,230.775.375a17.689,17.689,0,0,0,8.625-1.8,11.807,11.807,0,0,0,4.8-4.725,18.455,18.455,0,0,0,2.025-6.525,57.963,57.963,0,0,0,.45-7.2v-4.35a25.379,25.379,0,0,1-3.3,1.049,35.077,35.077,0,0,1-4.275.75,45.728,45.728,0,0,1-5.475.3,58.585,58.585,0,0,1-10.725-1.051,28.956,28.956,0,0,1-10.425-4.125,23.942,23.942,0,0,1-7.95-8.7q-3.15-5.625-3.15-14.776a32.958,32.958,0,0,1,2.7-14.025,25.727,25.727,0,0,1,7.2-9.375,27.964,27.964,0,0,1,10.425-5.174A47.916,47.916,0,0,1,364.3,245.959Zm12.15,12a27.91,27.91,0,0,0-5.7-1.2,56.638,56.638,0,0,0-7.05-.45q-8.55,0-14.175,4.575T343.9,275.66a20.628,20.628,0,0,0,1.65,8.775,14.688,14.688,0,0,0,4.425,5.625,17.4,17.4,0,0,0,6.45,3,31.717,31.717,0,0,0,7.575.9,48.06,48.06,0,0,0,5.85-.3,20.973,20.973,0,0,0,3.975-.826,14.621,14.621,0,0,0,2.625-1.125Z" fill="#fff"/>
            </g>
            <path id="Path_1425" data-name="Path 1425" d="M222.815,247.635a7.429,7.429,0,1,1,2.175,5.324A7.24,7.24,0,0,1,222.815,247.635Z" fill="#fff"/>
          </g>
        </g>
      </g>
    </g>
  </g>
</svg>
